# xmcd
#
# Track frame offsets:
#	150
#	11758
#	37971
#	57650
#	83652
#	108172
#
# Disc length: 1593 seconds
# Revision: 1
# Processed by: cddbd v1.5.2PL0 Copyright (c) Steve Scherf et al.
# Submitted via: dBpowerAMP V12.0
#
DISCID=41063706
DTITLE=Janis Joplin - The Essebtial Janis Joplin (Limited Edition 3.0)
DYEAR=2008
DGENRE=Blues
TTITLE0=Call On Me
TTITLE1=Combination Of The Two
TTITLE2=Turtle Blues
TTITLE3=Catch Me Daddy [Live]
TTITLE4=As Good As You've Been To This World
TTITLE5=Dear Landlord
EXTD=
EXTT0=
EXTT1=
EXTT2=
EXTT3=
EXTT4=
EXTT5=
PLAYORDER=
